<?xml version="1.0" encoding="utf-8"?>
<!-- Generator: Adobe Illustrator 27.0.0, SVG Export Plug-In . SVG Version: 6.00 Build 0)  -->
<svg version="1.1" id="레이어_1" xmlns="http://www.w3.org/2000/svg" xmlns:xlink="http://www.w3.org/1999/xlink" x="0px"
	 y="0px" viewBox="0 0 174 50" style="enable-background:new 0 0 174 50;" xml:space="preserve" width="12.5rem">
<style type="text/css">
	.st0{fill:#FFFFFF;}
</style>
<g>
	<path class="st0" d="M46.7,15.9l-0.9,8.3h-3.4l1.6-15h5.2l0.9,6.8l2.3-6.8h5.3l-1.6,15h-3.4l0.9-8.3l-2.9,8.3h-2.8L46.7,15.9z"/>
	<path class="st0" d="M64.7,24.2h-3.8l0.5-4.2h-1l-1.8-1.8l1-9h3.8l-0.8,7h2.2l0.8-7h3.8l-1,9l-2.2,1.8h-1L64.7,24.2z"/>
	<path class="st0" d="M79.5,9.1l-1.2,11.2h6l-0.4,3.8h-9.8l1.6-15H79.5z"/>
	<path class="st0" d="M91.1,9.1l-1.6,15h-3.8l1.6-15C87.2,9.1,91.1,9.1,91.1,9.1z"/>
	<path class="st0" d="M98,24.2h-3.8L95.4,13h-3l0.4-3.8h9.8l-0.4,3.8h-3L98,24.2z"/>
	<path class="st0" d="M109.6,24.2h-3.8l1.2-11.2h-3l0.4-3.8h9.8l-0.4,3.8h-3L109.6,24.2z"/>
	<path class="st0" d="M119.7,9.1l-1.2,11.2h6l-0.4,3.8h-9.8l1.6-15C115.8,9.1,119.7,9.1,119.7,9.1z"/>
	<path class="st0" d="M130.2,18.5l-0.2,1.8h6l-0.4,3.8h-9.8l1.6-15h9.8l-0.4,3.8h-6l-0.2,1.8h4l-0.4,3.8L130.2,18.5L130.2,18.5z"/>
	<path class="st0" d="M48.8,41.7H43L41.2,40l1.2-11.5l2.2-1.8h5.8l1.8,1.8l-0.4,3.8H48l0.2-1.8H46L45.2,38h2.2l0.2-1.8h3.8L51,40
		L48.8,41.7z"/>
	<path class="st0" d="M60.4,41.7h-5.8L52.8,40L54,28.5l2.2-1.8H62l1.8,1.8L62.6,40L60.4,41.7z M56.7,38.1H59l0.8-7.7h-2.2L56.7,38.1
		z"/>
	<path class="st0" d="M69.5,26.7l-1.6,15h-3.8l1.6-15H69.5z"/>
	<path class="st0" d="M74,35.3l-0.7,6.5h-3.7l1.6-15h3.7l1.8,6.2l0.7-6.2H81l-1.6,15h-3.6L74,35.3z"/>
	<path class="st0" d="M90.1,33.5l-0.9,8.3h-3.4l1.6-15h5.2l0.9,6.8l2.3-6.8h5.3l-1.6,15h-3.4l0.9-8.3l-2.9,8.3h-2.8L90.1,33.5z"/>
	<path class="st0" d="M105.4,38.1l-0.4,3.7h-3.8l1.4-13.2l2.2-1.8h5.8l1.8,1.8l-1.4,13.2h-3.8l0.4-3.7H105.4z M106.2,30.5l-0.4,3.7
		h2.2l0.4-3.7C108.4,30.5,106.2,30.5,106.2,30.5z"/>
	<path class="st0" d="M117.1,35.3l-0.7,6.5h-3.7l1.6-15h3.7l1.8,6.2l0.7-6.2h3.7l-1.6,15H119L117.1,35.3z"/>
	<path class="st0" d="M128.5,38.1l-0.4,3.7h-3.8l1.4-13.2l2.2-1.8h5.8l1.8,1.8l-1.4,13.2h-3.8l0.4-3.7H128.5z M129.3,30.5l-0.4,3.7
		h2.2l0.4-3.7C131.5,30.5,129.3,30.5,129.3,30.5z"/>
	<path class="st0" d="M143.6,41.7h-5.8L136,40l1.2-11.5l2.2-1.8h5.8l1.8,1.8l-0.3,3.1h-3.6l0.1-1.2h-2.4l-0.8,7.7h2.4l0.2-1.6h-1.3
		l0.3-3.2h4.9l-0.7,6.7L143.6,41.7z"/>
	<path class="st0" d="M151.8,36.1l-0.2,1.8h6l-0.4,3.8h-9.8l1.6-15h9.8l-0.4,3.8h-6l-0.2,1.8h4l-0.4,3.8L151.8,36.1L151.8,36.1z"/>
	<path class="st0" d="M163.2,37.1l-0.5,4.6h-3.8l1.6-15h7.8l1.8,1.8l-0.7,6.8l-1.5,1.2l1.7,5.2h-3.8l-1.5-4.6L163.2,37.1L163.2,37.1
		z M163.9,30.5l-0.3,2.8h2.6l0.3-2.8C166.5,30.5,163.9,30.5,163.9,30.5z"/>
</g>
<g>
	<path class="st0" d="M17.8,30c3-1.2,5.3-3.4,7.4-5.8c1.2-1.4,2.1-2.9,2.5-4.7c0.4-1.8-0.6-3.3-2.3-3.4c-0.7,0-1.5,0.1-2.2,0.3
		c-2.3,0.7-4.2,2.1-6.6,4.2c-0.5,0.6-1.7,1.9-2.7,3.2c-0.9,1.2-1.6,2.6-1.7,4.1c-0.2,1.6,1,3,2.6,2.9C15.7,30.6,16.8,30.4,17.8,30z
		 M13.7,27.5c0.3-1,0.7-2,1.3-2.9c2-2.8,4.4-5,7.5-6.4c0.6-0.3,1.3-0.5,2-0.5c1.1-0.1,1.8,0.6,1.5,1.7c-0.3,1-0.8,2-1.4,2.9
		c-0.8,1.2-1.9,2.3-2.8,3.4c-1.5,1.1-2.9,2.2-4.6,2.9c-0.7,0.3-1.4,0.5-2.1,0.6C14.1,29.2,13.4,28.6,13.7,27.5z"/>
	<path class="st0" d="M31,8.5H16C10.7,8.5,6,12.7,5.5,18L3.9,33c-0.5,5.2,3.2,9.5,8.5,9.5h15c5.2,0,9.9-4.2,10.5-9.5l1.6-15
		C40,12.7,36.2,8.5,31,8.5z M9.7,28.7c0.3-2.3,1.3-4.3,2.7-6.2c2.7-3.6,6-6.4,10.1-7.9c1.2-0.4,2.4-0.7,3.6-0.8
		c3-0.1,4.7,1.9,4.3,4.8c-0.3,2.5-1.6,4.6-3.2,6.6c-0.9,1.1-1.9,2.2-2.5,2.8c-3,2.5-5.8,4.4-9.1,5.1c-0.6,0.1-1.2,0.2-1.8,0.2
		C11.1,33.6,9.4,31.6,9.7,28.7z M13.2,35.2c0.9-0.1,1.8-0.2,2.7-0.3c0.1,0,0.2,0.1,0.3,0.2c0.5,0.6,1.1,1.2,1.7,1.9
		C15.8,37.4,14.3,36.8,13.2,35.2z M20,36.4c-0.1,0.1-0.3,0-0.4-0.1c-0.6-0.6-1.1-1.3-1.7-1.9c1.5-0.8,2.9-1.5,4.4-2.2
		c0.6,0.7,1.2,1.3,1.9,2.2C22.8,35,21.4,35.7,20,36.4z M25.5,33.3c-0.6-0.7-1.2-1.4-1.8-2.1c1.2-1.1,2.3-2.1,3.5-3.2
		c0.6,0.7,1.2,1.3,1.8,2.1C27.8,31.2,26.7,32.2,25.5,33.3z M32.6,25c-0.8,1.3-1.5,2.5-2.4,3.9c-0.7-0.8-1.2-1.4-1.8-2
		c-0.1-0.1-0.1-0.4,0-0.5c0.8-1.3,1.7-2.5,2.6-3.8c0.5,0.6,1.1,1.2,1.6,1.8C32.7,24.6,32.7,24.9,32.6,25z M33.4,22.9
		c-0.6-0.6-1.1-1.3-1.7-1.9c-0.1-0.1-0.1-0.3-0.1-0.4c0.2-0.8,0.4-1.7,0.5-2.5C33.6,18.9,34.2,21.1,33.4,22.9z"/>
</g>
</svg>
