<?xml version="1.0" encoding="utf-8"?>
<!-- Generator: Adobe Illustrator 27.0.0, SVG Export Plug-In . SVG Version: 6.00 Build 0)  -->
<svg version="1.1" id="레이어_1" xmlns="http://www.w3.org/2000/svg" xmlns:xlink="http://www.w3.org/1999/xlink" x="0px"
	 y="0px" viewBox="0 0 174 50" style="enable-background:new 0 0 174 50;" xml:space="preserve">
<style type="text/css">
	.st0{fill:#3D6BFB;}
	.st1{fill:#FFFFFF;}
</style>
<g>
	<g>
		<path class="st0" d="M46.73,15.91l-0.86,8.26H42.5l1.58-15.02h5.18l0.92,6.77l2.27-6.77h5.28l-1.59,15.02h-3.36l0.86-8.26
			l-2.88,8.26h-2.85L46.73,15.91z"/>
		<path class="st0" d="M64.71,24.17h-3.79l0.45-4.22h-1.04l-1.84-1.76l0.96-9.04h3.82l-0.75,7h2.21l0.75-7h3.79l-0.96,9.04
			l-2.17,1.76h-0.98L64.71,24.17z"/>
		<path class="st0" d="M79.52,9.14l-1.18,11.23h6.01l-0.41,3.79h-9.83L75.7,9.14H79.52z"/>
		<path class="st0" d="M91.06,9.14l-1.59,15.02h-3.81l1.58-15.02H91.06z"/>
		<path class="st0" d="M98.02,24.17h-3.79l1.17-11.2h-3.04l0.4-3.82h9.83l-0.4,3.82h-2.99L98.02,24.17z"/>
		<path class="st0" d="M109.56,24.17h-3.79l1.17-11.2h-3.04l0.4-3.82h9.83l-0.4,3.82h-2.99L109.56,24.17z"/>
		<path class="st0" d="M119.66,9.14l-1.18,11.23h6.01l-0.41,3.79h-9.83l1.58-15.02H119.66z"/>
		<path class="st0" d="M130.19,18.54l-0.2,1.8h6.03l-0.41,3.82h-9.83l1.58-15.02h9.83l-0.4,3.82h-6.03l-0.19,1.76h4.03l-0.39,3.81
			H130.19z"/>
		<path class="st0" d="M48.82,41.75h-5.81l-1.8-1.76l1.2-11.48l2.19-1.78h5.81l1.82,1.78l-0.41,3.8h-3.81l0.19-1.78h-2.21
			l-0.78,7.43h2.21l0.2-1.83h3.81l-0.41,3.87L48.82,41.75z"/>
		<path class="st0" d="M60.36,41.75h-5.81l-1.8-1.76l1.2-11.48l2.19-1.78h5.81l1.82,1.78l-1.2,11.48L60.36,41.75z M56.73,38.08h2.23
			l0.82-7.72h-2.23L56.73,38.08z"/>
		<path class="st0" d="M69.49,26.73L67.9,41.75h-3.81l1.58-15.02H69.49z"/>
		<path class="st0" d="M74,35.27l-0.69,6.48h-3.69l1.58-15.02h3.68l1.8,6.16l0.66-6.16h3.69l-1.58,15h-3.6L74,35.27z"/>
		<path class="st0" d="M90.09,33.49l-0.86,8.26h-3.36l1.58-15.02h5.18l0.92,6.77l2.27-6.77h5.28l-1.59,15.02h-3.36l0.86-8.26
			l-2.88,8.26h-2.85L90.09,33.49z"/>
		<path class="st0" d="M105.41,38.06l-0.39,3.69h-3.79l1.39-13.24l2.19-1.78h5.81l1.82,1.78l-1.39,13.24h-3.82l0.39-3.69H105.41z
			 M106.2,30.53l-0.39,3.71h2.21l0.39-3.71H106.2z"/>
		<path class="st0" d="M117.14,35.27l-0.69,6.48h-3.69l1.58-15.02h3.68l1.8,6.16l0.66-6.16h3.69l-1.58,15h-3.6L117.14,35.27z"/>
		<path class="st0" d="M128.48,38.06l-0.39,3.69h-3.79l1.39-13.24l2.19-1.78h5.81l1.82,1.78l-1.39,13.24h-3.82l0.39-3.69H128.48z
			 M129.28,30.53l-0.39,3.71h2.21l0.39-3.71H129.28z"/>
		<path class="st0" d="M143.64,41.75h-5.81l-1.8-1.76l1.2-11.48l2.19-1.78h5.81l1.82,1.78l-0.32,3.09h-3.65l0.13-1.24h-2.38
			l-0.82,7.72h2.39l0.17-1.61h-1.27l0.32-3.15h4.91l-0.69,6.67L143.64,41.75z"/>
		<path class="st0" d="M151.77,36.12l-0.2,1.8h6.03l-0.41,3.82h-9.83l1.58-15.02h9.83l-0.4,3.82h-6.03l-0.19,1.76h4.03l-0.39,3.81
			H151.77z"/>
		<path class="st0" d="M163.2,37.12l-0.5,4.63h-3.79l1.58-15.02h7.82l1.82,1.78l-0.73,6.83l-1.5,1.22l1.74,5.2h-3.8l-1.54-4.63
			H163.2z M163.88,30.53l-0.3,2.79h2.64l0.3-2.79H163.88z"/>
	</g>
	<g>
		<path class="st0" d="M27.43,42.45H12.41c-5.23,0-9.03-4.24-8.48-9.48L5.5,17.95c0.55-5.23,5.24-9.48,10.47-9.48H31
			c5.23,0,9.03,4.24,8.48,9.48L37.9,32.97C37.35,38.2,32.66,42.45,27.43,42.45z"/>
		<g id="kqSKiX.tif_00000181766076113873893670000001575281166101778060_">
			<g>
				<path class="st1" d="M24.84,28.18c-3,2.55-5.76,4.42-9.06,5.13c-0.59,0.13-1.19,0.19-1.78,0.2c-2.92,0.05-4.63-1.87-4.27-4.78
					c0.28-2.27,1.34-4.29,2.74-6.16c2.67-3.57,5.96-6.36,10.11-7.94c1.16-0.44,2.44-0.7,3.64-0.76c2.98-0.14,4.7,1.87,4.29,4.85
					c-0.34,2.48-1.57,4.63-3.15,6.62C26.46,26.46,25.44,27.5,24.84,28.18z M16.54,20.51c-0.55,0.64-1.71,1.87-2.73,3.2
					c-0.92,1.21-1.56,2.56-1.72,4.05c-0.17,1.63,0.98,3.03,2.61,2.93c1.02-0.06,2.09-0.29,3.06-0.7c2.97-1.25,5.33-3.37,7.41-5.83
					c1.17-1.39,2.11-2.9,2.45-4.67c0.35-1.78-0.62-3.28-2.3-3.39c-0.7-0.04-1.45,0.06-2.15,0.26C20.9,17.02,19,18.42,16.54,20.51z"
					/>
				<path class="st1" d="M30.21,28.94c-0.68-0.77-1.24-1.37-1.76-2c-0.09-0.1-0.12-0.36-0.05-0.47c0.85-1.28,1.72-2.54,2.59-3.83
					c0.51,0.57,1.07,1.17,1.58,1.8c0.1,0.13,0.13,0.44,0.04,0.59C31.86,26.3,31.06,27.56,30.21,28.94z"/>
				<path class="st1" d="M22.26,32.18c0.59,0.66,1.2,1.35,1.93,2.17c-1.44,0.7-2.81,1.36-4.19,2.01c-0.12,0.06-0.35,0.02-0.43-0.06
					c-0.58-0.62-1.14-1.26-1.7-1.88C19.36,33.65,20.8,32.92,22.26,32.18z"/>
				<path class="st1" d="M25.5,33.26c-0.64-0.71-1.23-1.38-1.84-2.07c1.17-1.06,2.32-2.09,3.5-3.15c0.6,0.68,1.19,1.34,1.84,2.07
					C27.84,31.16,26.68,32.2,25.5,33.26z"/>
				<path class="st1" d="M17.92,36.93c-2.12,0.43-3.63-0.16-4.69-1.77c0.92-0.1,1.83-0.2,2.74-0.29c0.1-0.01,0.21,0.1,0.29,0.19
					C16.79,35.65,17.32,36.25,17.92,36.93z"/>
				<path class="st1" d="M33.41,22.87c-0.57-0.64-1.13-1.26-1.67-1.89c-0.07-0.09-0.09-0.26-0.07-0.39
					c0.17-0.83,0.36-1.67,0.54-2.48C33.61,18.93,34.19,21.13,33.41,22.87z"/>
				<path class="st1" d="M21.84,25.65c-1.46,1.12-2.9,2.2-4.55,2.91c-0.68,0.29-1.41,0.5-2.12,0.58c-1.11,0.11-1.75-0.56-1.45-1.64
					c0.28-1,0.72-2.03,1.32-2.89c1.95-2.77,4.43-4.97,7.52-6.38c0.63-0.28,1.33-0.47,1.99-0.54c1.14-0.12,1.8,0.56,1.48,1.67
					c-0.29,0.99-0.75,2.01-1.35,2.88C23.85,23.44,22.8,24.51,21.84,25.65z"/>
			</g>
		</g>
	</g>
</g>
</svg>
