<?xml version="1.0" encoding="utf-8"?>
<!-- Generator: Adobe Illustrator 27.0.0, SVG Export Plug-In . SVG Version: 6.00 Build 0)  -->
<svg version="1.1" id="레이어_1" xmlns="http://www.w3.org/2000/svg" xmlns:xlink="http://www.w3.org/1999/xlink" x="0px"
	 y="0px" viewBox="0 0 535.3 512" style="enable-background:new 0 0 535.3 512;" xml:space="preserve" width="3rem">
<style type="text/css">
	.st2{fill:#D6D6D6;}
</style>
<path class="st2" d="M296.3,20.2C291,9.3,279.9,2.4,267.8,2.4s-23.2,6.9-28.5,17.8l-60.4,124.2c-2.1,4.3-6.1,7.2-10.8,7.9
	L33.3,172.3c-11.9,1.8-21.8,10.1-25.5,21.5s-0.7,24,7.8,32.4l97.9,96.9c3.3,3.3,4.8,8,4.1,12.6l-23.1,137c-2,11.9,3,24,12.8,31
	s22.8,7.9,33.5,2.3l120.3-64.2c4.2-2.3,9.3-2.3,13.5,0l120.3,64.2c10.7,5.6,23.7,4.9,33.5-2.3s14.8-19.1,12.8-31l-23.2-137
	c-0.8-4.6,0.7-9.3,4.1-12.6l97.9-96.9c8.5-8.4,11.6-21,7.8-32.4s-13.6-19.7-25.5-21.5l-134.9-19.9c-4.7-0.7-8.7-3.7-10.8-7.9
	L296.3,20.2z"/>
</svg>
